<?xml version="1.0" encoding="utf-8"?>
<!-- Generator: Adobe Illustrator 26.0.1, SVG Export Plug-In . SVG Version: 6.00 Build 0)  -->
<svg version="1.1" id="Layer_1" xmlns="http://www.w3.org/2000/svg" xmlns:xlink="http://www.w3.org/1999/xlink" x="0px" y="0px"
	 viewBox="0 0 453.25 135.09" style="enable-background:new 0 0 453.25 135.09;" xml:space="preserve">
<style type="text/css">
	.st0{fill:#A42421;}
	.st1{fill:url(#SVGID_1_);}
	.st2{fill:url(#SVGID_00000139266577193863475480000013247336829077170590_);}
	.st3{fill:url(#SVGID_00000159429791397472567640000001183627888614629041_);}
	.st4{fill:url(#SVGID_00000114758110750568800820000007584791176581673652_);}
	.st5{fill:url(#SVGID_00000013915519769561621930000009849044686749187217_);}
	.st6{fill:url(#SVGID_00000181771847035367919160000013156925148847464633_);}
	.st7{fill:url(#SVGID_00000078026261505675503420000006964268225611984008_);}
</style>
<g>
	<g>
		<path class="st0" d="M51.55,99.2l-6.92-9.4c-2.01,0.4-3.94,0.6-5.79,0.6c-4.96,0-9.49-1.17-13.57-3.5
			c-4.09-2.33-7.32-5.57-9.7-9.74C13.19,73.01,12,68.32,12,63.11c0-5.21,1.19-9.89,3.57-14.02c2.38-4.14,5.61-7.37,9.7-9.7
			c4.08-2.33,8.61-3.5,13.57-3.5c5.01,0,9.56,1.17,13.65,3.5c4.08,2.33,7.3,5.56,9.66,9.7c2.36,4.13,3.53,8.81,3.53,14.02
			c0,4.61-0.94,8.82-2.82,12.63c-1.88,3.81-4.47,6.94-7.78,9.4L66.96,99.2H51.55z M28.81,74.24c2.48,2.76,5.83,4.13,10.04,4.13
			c4.16,0,7.49-1.38,10-4.13c2.5-2.76,3.76-6.47,3.76-11.13s-1.24-8.37-3.72-11.13c-2.48-2.76-5.83-4.13-10.04-4.13
			s-7.56,1.36-10.04,4.1c-2.48,2.73-3.72,6.45-3.72,11.16C25.09,67.77,26.33,71.48,28.81,74.24z"/>
		<path class="st0" d="M114.63,47.92v41.95H101.7v-7.59c-1.2,2.46-2.99,4.41-5.38,5.86c-2.38,1.45-5.15,2.18-8.31,2.18
			c-4.81,0-8.64-1.6-11.47-4.81c-2.83-3.21-4.25-7.62-4.25-13.23V47.92h12.78V70.7c0,2.86,0.74,5.07,2.22,6.65s3.47,2.37,5.98,2.37
			c2.61,0,4.66-0.83,6.17-2.48c1.5-1.66,2.26-4.01,2.26-7.07V47.92H114.63z"/>
		<path class="st0" d="M124.41,31.27c1.4-1.28,3.26-1.92,5.56-1.92c2.3,0,4.16,0.64,5.56,1.92c1.4,1.28,2.1,2.9,2.1,4.85
			c0,1.91-0.7,3.5-2.1,4.77c-1.4,1.28-3.26,1.92-5.56,1.92c-2.31,0-4.16-0.64-5.56-1.92s-2.11-2.87-2.11-4.77
			C122.3,34.16,123,32.55,124.41,31.27z M136.36,47.92v41.95H123.5V47.92H136.36z"/>
		<path class="st0" d="M156.59,79.12h19.4v10.75h-33.46V79.73l18.04-21.13h-17.74V47.92h32.41v10.15L156.59,79.12z"/>
	</g>
	<g>
		<path class="st0" d="M293.82,68.73V90.2h-6.88V36.91h16.93c6.1,0,10.66,1.43,13.68,4.27c3.02,2.85,4.53,6.74,4.53,11.68
			c0,4.99-1.56,8.88-4.69,11.68s-7.63,4.2-13.53,4.2H293.82z M312.3,60.34c1.84-1.76,2.76-4.26,2.76-7.48c0-3.32-0.92-5.86-2.76-7.6
			s-4.85-2.61-9.03-2.61h-9.45v20.33h9.45C307.45,62.99,310.46,62.11,312.3,60.34z"/>
		<path class="st0" d="M342.95,50.4c2.62-1.59,5.75-2.38,9.37-2.38v7.48h-2.11c-3.88,0-7.06,0.99-9.52,2.98
			c-2.47,1.99-3.7,5.28-3.7,9.86V90.2h-6.88V48.7h6.88v8.39C338.34,54.22,340.33,51.99,342.95,50.4z"/>
		<path class="st0" d="M359.2,33.47c0.86-0.78,1.99-1.17,3.4-1.17c1.41,0,2.54,0.39,3.4,1.17c0.86,0.78,1.29,1.8,1.29,3.06
			c0,1.26-0.43,2.28-1.29,3.06c-0.86,0.78-1.99,1.17-3.4,1.17c-1.41,0-2.55-0.39-3.4-1.17c-0.86-0.78-1.28-1.8-1.28-3.06
			C357.92,35.28,358.34,34.26,359.2,33.47z M366,48.7V90.2h-6.88V48.7H366z"/>
		<path class="st0" d="M408.5,52.67c2.97,3.1,4.46,7.57,4.46,13.41V90.2h-6.88V66.69c0-4.13-1.06-7.31-3.17-9.52
			c-2.12-2.22-4.99-3.33-8.62-3.33c-3.78,0-6.8,1.22-9.07,3.67c-2.27,2.44-3.4,6.01-3.4,10.69V90.2h-6.88V48.7h6.88v9.83
			c1.06-3.37,2.94-5.97,5.63-7.79c2.7-1.81,5.81-2.72,9.33-2.72C401.62,48.02,405.53,49.57,408.5,52.67z"/>
		<path class="st0" d="M441.24,84.15v6.05h-5.14c-4.23,0-7.39-1.01-9.49-3.02c-2.09-2.01-3.14-5.39-3.14-10.13V54.67h-6.2V48.7h6.2
			V38.35h6.95V48.7h10.73v5.97h-10.73V77.2c0,2.67,0.49,4.5,1.47,5.48c0.98,0.98,2.68,1.47,5.1,1.47H441.24z"/>
	</g>
	<g>
		<linearGradient id="SVGID_1_" gradientUnits="userSpaceOnUse" x1="228.6088" y1="15.6525" x2="228.6088" y2="133.9307">
			<stop  offset="0" style="stop-color:#000000"/>
			<stop  offset="1" style="stop-color:#000000"/>
		</linearGradient>
		<polygon class="st1" points="222.51,99.66 234.88,99.66 235.36,105.7 221.86,105.7 		"/>
		
			<linearGradient id="SVGID_00000133492079073192203510000007053809117518835849_" gradientUnits="userSpaceOnUse" x1="230.224" y1="15.6525" x2="230.224" y2="133.9307">
			<stop  offset="0" style="stop-color:#000000"/>
			<stop  offset="1" style="stop-color:#000000"/>
		</linearGradient>
		<path style="fill:url(#SVGID_00000133492079073192203510000007053809117518835849_);" d="M198.45,75.17c0,4.76,0,9.45,0,14.25
			c-4.71,0-9.28,0-13.97,0c0-0.48,0-0.9,0-1.32c0-9.45,0-18.89,0-28.34c0-4.76,2.95-7.79,7.71-7.8c25.39-0.02,50.78-0.02,76.17,0
			c4.63,0,7.6,3.06,7.61,7.68c0.01,9.52,0,19.04,0,28.56c0,0.38,0,0.77,0,1.24c-4.66,0-9.21,0-13.93,0c0-4.77,0-9.48,0-14.27
			C240.77,75.17,219.68,75.17,198.45,75.17z M268.96,59.42c-2.21,0-4.35,0-6.57,0c0,1.17,0,2.27,0,3.43c2.24,0,4.38,0,6.57,0
			C268.96,61.68,268.96,60.6,268.96,59.42z"/>
		
			<linearGradient id="SVGID_00000168109169532475326980000005140912116444016525_" gradientUnits="userSpaceOnUse" x1="230.2095" y1="15.6525" x2="230.2095" y2="133.9307">
			<stop  offset="0" style="stop-color:#000000"/>
			<stop  offset="1" style="stop-color:#000000"/>
		</linearGradient>
		<path style="fill:url(#SVGID_00000168109169532475326980000005140912116444016525_);" d="M230.17,112.39c-8.66,0-17.33,0-25.99,0
			c-0.46,0-0.93,0.01-1.39-0.03c-2.42-0.21-3.99-2.11-3.58-4.5c0.93-5.44,1.94-10.86,2.91-16.3c0.57-3.15,1.13-6.31,1.69-9.46
			c0.41-2.35,1.88-3.64,4.28-3.64c14.76-0.01,29.52-0.01,44.29,0c2.4,0,3.86,1.31,4.28,3.64c1.49,8.31,2.98,16.61,4.5,24.91
			c0.63,3.42-0.95,5.36-4.45,5.37C247.85,112.39,239.01,112.39,230.17,112.39z M252.37,82.83c-14.87,0-29.51,0-44.29,0
			c-1.5,8.38-3,16.72-4.52,25.21c17.84,0,35.5,0,53.34,0C255.37,99.56,253.87,91.21,252.37,82.83z"/>
		
			<linearGradient id="SVGID_00000086655679631653995060000002615512703224866441_" gradientUnits="userSpaceOnUse" x1="230.2253" y1="15.6525" x2="230.2253" y2="133.9307">
			<stop  offset="0" style="stop-color:#000000"/>
			<stop  offset="1" style="stop-color:#000000"/>
		</linearGradient>
		<path style="fill:url(#SVGID_00000086655679631653995060000002615512703224866441_);" d="M202.94,22.78
			c0.53-0.02,0.96-0.06,1.38-0.06c12.98,0,25.96,0,38.94-0.02c0.84,0,1.47,0.22,2.09,0.81c4.04,3.87,8.11,7.71,12.15,11.53
			c0,3.11,0,11.46,0,14.58c-1.37,0-2.66,0-4.19,0c0-2.02,0-9.25,0-11.3c-4.06,0-7.9,0-11.88,0c0-3.77,0-7.42,0-11.2
			c-11.45,0-22.76,0-34.22,0c0,5.71,0,16.66,0,22.45c-1.5,0-2.85,0-4.28,0C202.94,42.43,202.94,30.03,202.94,22.78z M249.62,33.7
			c-1.29-1.22-2.37-2.24-3.64-3.44c0,1.35,0,2.37,0,3.44C247.16,33.7,248.21,33.7,249.62,33.7z"/>
		
			<linearGradient id="SVGID_00000047767943639024279460000010996391394302463399_" gradientUnits="userSpaceOnUse" x1="229.4652" y1="15.6525" x2="229.4652" y2="133.9307">
			<stop  offset="0" style="stop-color:#000000"/>
			<stop  offset="1" style="stop-color:#000000"/>
		</linearGradient>
		<path style="fill:url(#SVGID_00000047767943639024279460000010996391394302463399_);" d="M244,89.44
			c-0.38-1.63-2.18-2.87-5.34-3.77c-2.26-0.65-5.12-0.96-8.61-0.96c-4.49,0-7.87,0.46-10.22,1.39c-1.49,0.59-2.67,1.33-3.53,2.2
			c-0.06,0.06-0.13,0.14-0.19,0.21c-0.07,0.07-0.13,0.15-0.19,0.22c-0.41,0.51-0.8,1.18-1.03,2h10.34c0.3-0.98,0.85-1.65,1.67-2.02
			c0.81-0.37,1.81-0.56,3.02-0.56c1.12,0,1.96,0.12,2.53,0.36c0.57,0.24,0.87,0.59,0.9,1.03c0.03,0.45-0.66,0.96-2.07,1.52
			c-2.73,1.1-4.54,1.9-5.36,2.36c-0.84,0.47-1.49,0.99-1.95,1.57c-0.47,0.59-0.75,1.38-0.85,2.38l-0.06,0.6h11.28
			c-0.06-0.82,0.16-1.47,0.63-1.95c0.47-0.48,1.62-1.11,3.43-1.88c2.53-1.06,4.12-1.93,4.82-2.63
			C243.91,90.84,244.16,90.14,244,89.44z"/>
		
			<linearGradient id="SVGID_00000078035388465845728920000006988928539438768267_" gradientUnits="userSpaceOnUse" x1="230.2902" y1="15.6525" x2="230.2902" y2="133.9307">
			<stop  offset="0" style="stop-color:#000000"/>
			<stop  offset="1" style="stop-color:#000000"/>
		</linearGradient>
		
			<rect x="216.11" y="41.07" style="fill:url(#SVGID_00000078035388465845728920000006988928539438768267_);" width="28.36" height="2.46"/>
		
			<linearGradient id="SVGID_00000165194061146876692480000016376946088889228936_" gradientUnits="userSpaceOnUse" x1="230.2902" y1="15.6525" x2="230.2902" y2="133.9307">
			<stop  offset="0" style="stop-color:#000000"/>
			<stop  offset="1" style="stop-color:#000000"/>
		</linearGradient>
		
			<rect x="216.11" y="46.51" style="fill:url(#SVGID_00000165194061146876692480000016376946088889228936_);" width="28.36" height="2.46"/>
	</g>
</g>
</svg>
