<?xml version="1.0" encoding="UTF-8"?>
<svg id="Layer_2" data-name="Layer 2" xmlns="http://www.w3.org/2000/svg" viewBox="0 0 850 202.55">
  <defs>
    <style>
      .cls-1 {
        fill: #bd2226;
      }

      .cls-1, .cls-2, .cls-3, .cls-4, .cls-5 {
        stroke-width: 0px;
      }

      .cls-2 {
        fill: #6d6e71;
      }

      .cls-3 {
        fill: #231f20;
      }

      .cls-4 {
        fill: #bcbec0;
      }

      .cls-5 {
        fill: #414042;
      }
    </style>
  </defs>
  <g id="Final_Logo" data-name="Final Logo">
    <g>
      <g>
        <path class="cls-1" d="M187.78,58.01c-21.72,18.86-54.52,51.9-67.03,88.46-13.53-25.21-41.49-61.4-41.49-61.4,0,0,21.77,6.55,36.53,22.33,18.2-26.16,45.99-43.99,66.38-54.43-1.63-9.85-4.2-18.1-8.06-23.72C146.32-7.67,37.73.85,37.73.85c0,0,62.76,73.22,28.39,157.19,94.24-34.84,108,35.76,108,35.76,0,0,11.57-64.53,10.3-114.69,8.72-19.95,23.94-37.28,23.94-37.28l-20.58,16.17Z"/>
        <g>
          <path class="cls-5" d="M57.1,51.61c-4.24-10.81-9.14-20.12-13.54-27.43C19.03,28.36,0,34.07,0,34.07c0,0,55.22,41.91,62.38,109.1,8.89-29.15,7.14-59.88-5.28-91.56Z"/>
          <path class="cls-5" d="M113.13,156.9c-12.85,0-27.67,3.08-44.06,9.13l-6.38,2.36c-.35,4.36-.9,8.79-1.7,13.31,38.1-24.27,64.81-24.27,82.66-16.91-7.5-4.62-17.42-7.89-30.53-7.89Z"/>
        </g>
        <path class="cls-4" d="M192.82,198.64c0,2.16-35.1,3.91-78.39,3.91s-78.4-1.75-78.4-3.91,35.1-3.9,78.4-3.9,78.39,1.75,78.39,3.9Z"/>
      </g>
      <g>
        <g>
          <path class="cls-1" d="M219.39,73.59h18.66c.51,2.16,1.45,3.72,2.8,4.66,1.35.95,3.37,1.42,6.04,1.42,2.24,0,4.01-.39,5.29-1.16,1.28-.77,1.93-1.83,1.93-3.18,0-2.16-2.69-3.92-8.07-5.27-1.08-.27-1.91-.47-2.47-.61-4.41-1.14-7.92-2.17-10.53-3.1-2.61-.93-4.51-1.81-5.7-2.62-2.3-1.65-4.02-3.62-5.17-5.92-1.15-2.3-1.72-4.92-1.72-7.87,0-5.92,2.23-10.57,6.69-13.95,4.46-3.38,10.6-5.07,18.41-5.07s13.72,1.62,18.13,4.85c4.41,3.23,6.9,7.86,7.46,13.89h-18.21c-.3-1.76-1.07-3.07-2.33-3.93-1.26-.87-3.05-1.3-5.37-1.3-2.06,0-3.58.34-4.58,1.01-1,.68-1.5,1.7-1.5,3.08,0,1.97,2.62,3.62,7.87,4.95.46.14.81.23,1.05.28.76.19,1.91.47,3.45.85,6.95,1.76,11.49,3.35,13.63,4.79,2.65,1.76,4.58,3.76,5.8,6,1.22,2.25,1.83,4.89,1.83,7.95,0,6.6-2.31,11.67-6.92,15.21-4.61,3.54-11.22,5.31-19.81,5.31-7.92,0-14.2-1.77-18.84-5.31-4.64-3.54-7.24-8.53-7.81-14.97Z"/>
          <path class="cls-1" d="M277.25,92.2v-59.75h18.21l16.75,27.78c.51.79,1.06,1.89,1.64,3.33.58,1.43,1.2,3.16,1.85,5.19-.16-1.05-.28-2.22-.37-3.49-.08-1.27-.12-2.81-.12-4.62v-28.19h18.29v59.75h-18.29l-16.75-27.58c-.51-.81-1.07-1.96-1.68-3.45-.61-1.49-1.22-3.19-1.85-5.11.19,1.05.32,2.16.41,3.31.08,1.15.12,2.76.12,4.85v27.99h-18.21Z"/>
          <path class="cls-1" d="M449.24,43.41c-1.35-2.76-3.41-5.07-6.17-6.94-2.14-1.41-4.79-2.43-7.97-3.06-3.18-.63-7.48-.95-12.92-.95h-24.58v14.64h25.35c4.11,0,6.81.45,8.11,1.34,1.3.89,1.95,2.49,1.95,4.79s-.68,3.85-2.03,4.75c-1.35.89-4.03,1.34-8.03,1.34h-25.35v32.9h19.19v-18.29h11.48c7.44,0,13.13-1.78,17.08-5.33,3.95-3.55,5.92-8.67,5.92-15.35,0-3.79-.68-7.06-2.03-9.82Z"/>
          <path class="cls-1" d="M450.52,92.2v-5.07l36.97-49.77h-34.17v-4.91h40.97v4.75l-37.21,50.01h37.77v4.99h-44.33Z"/>
          <polygon class="cls-1" points="375.27 32.46 355.84 32.46 334.83 92.2 353.69 92.2 365.58 51.07 377.26 92.2 396.28 92.2 375.27 32.46"/>
        </g>
        <path class="cls-3" d="M288.7,193.89l-9.8-8.75c-6.88,4.78-15.28,7.7-24.85,7.7-25.08,0-42.58-19.02-42.58-42v-.23c0-22.98,17.73-42.23,42.82-42.23s42.58,19.02,42.58,42v.23c0,9.22-3.03,17.97-8.28,25.08l9.33,7.93-9.22,10.27ZM268.4,175.81l-14.12-12.02,9.22-10.5,14.35,13.07c2.57-4.43,3.97-9.68,3.97-15.52v-.23c0-15.87-11.55-29.05-27.77-29.05s-27.53,12.95-27.53,28.82v.23c0,15.87,11.55,28.93,27.77,28.93,5.37,0,10.15-1.4,14.12-3.73Z"/>
        <path class="cls-3" d="M310.05,156.79v-47.02h14.35v46.43c0,15.17,7.82,23.22,20.65,23.22s20.53-7.58,20.53-22.63v-47.02h14.35v46.32c0,24.38-13.77,36.63-35.12,36.63s-34.77-12.25-34.77-35.93Z"/>
        <path class="cls-3" d="M397.55,109.78h14.35v81.67h-14.35v-81.67Z"/>
        <path class="cls-3" d="M427.89,180.83l48.18-58.33h-46.67v-12.72h65.45v10.62l-48.3,58.33h48.3v12.72h-66.97v-10.62Z"/>
        <path class="cls-2" d="M509.79,109.78h32.2c19.13,0,31.03,10.85,31.03,27.3v.23c0,18.32-14.7,27.88-32.67,27.88h-16.22v26.25h-14.35v-81.67ZM540.82,152.24c10.85,0,17.62-6.07,17.62-14.58v-.23c0-9.57-6.88-14.58-17.62-14.58h-16.68v29.4h16.68Z"/>
        <path class="cls-2" d="M584.81,109.78h36.4c10.27,0,18.32,3.03,23.57,8.17,4.32,4.43,6.77,10.5,6.77,17.62v.23c0,13.42-8.05,21.47-19.37,24.73l22.05,30.92h-17.03l-20.07-28.47h-17.97v28.47h-14.35v-81.67ZM620.16,150.26c10.27,0,16.8-5.37,16.8-13.65v-.23c0-8.75-6.3-13.53-16.92-13.53h-20.88v27.42h21Z"/>
        <path class="cls-2" d="M667.06,109.78h14.35v81.67h-14.35v-81.67Z"/>
        <path class="cls-2" d="M700.31,109.78h13.3l43.75,56.47v-56.47h14.12v81.67h-12.02l-45.03-58.1v58.1h-14.12v-81.67Z"/>
        <path class="cls-2" d="M809.63,123.08h-25.9v-13.3h66.27v13.3h-25.9v68.37h-14.47v-68.37Z"/>
      </g>
    </g>
  </g>
</svg>